<svg xmlns="http://www.w3.org/2000/svg" width="240" height="234" viewBox="0 0 240 234">
  <defs>
    <style>
      .cls-1 {
        fill: #300;
      }

      .cls-2 {
        fill: #ff9a00;
      }
    </style>
  </defs>
  <g id="Layer_2" data-name="Layer 2">
    <g id="Surfaces">
      <g id="Drawing_Surface" data-name="Drawing Surface">
        <g id="Outline_no_shadow" data-name="Outline no shadow">
          <rect class="cls-1" width="240" height="234" rx="42.5"/>
        </g>
      </g>
    </g>
  </g>
  <g id="New_Points_Modified" data-name="New | Points Modified">
    <g>
      <path class="cls-2" d="M169.75,77.05774a12.85423,12.85423,0,0,1-6.36531-1.65234,11.69213,11.69213,0,0,1-2.48918-1.953,13.59507,13.59507,0,0,1-1.63411-15.78785,11.82567,11.82567,0,0,1,1.87531-2.32471,12.44146,12.44146,0,0,1,8.26708-3.46069,16.45786,16.45786,0,0,1,4.558.458,11.16779,11.16779,0,0,1,3.67423,1.67539,10.538,10.538,0,0,1,1.5329,1.32727,12.33477,12.33477,0,0,1,3.23736,7.10353,14.3451,14.3451,0,0,1-1.25273,7.9542,12.59267,12.59267,0,0,1-2.14576,3.05482A12.73441,12.73441,0,0,1,169.75,77.05774Z"/>
      <path class="cls-2" d="M158.64,163.77V86.78c0-1,.43-1.45,1.29-1.45h19.8c.86,0,1.29.48,1.29,1.45v76.99c0,1.08-.43,1.61-1.29,1.61H160.09c-.97-.01-1.45-.53-1.45-1.61Z"/>
      <g id="Outlined_Mnemonics_Logos" data-name="Outlined Mnemonics Logos">
        <g id="Ai">
          <path class="cls-2" d="M116.3,140.43H79.11l-7.57,23.5a1.88,1.88,0,0,1-1.93,1.45H50.77c-1.07,0-1.45-.59-1.12-1.77l32.2-92.73s.66142-1.8428,1-3.3a34.75,34.75,0,0,0,.65-6.52,1.016,1.016,0,0,1,1.101-1.12963L110.22,59.93c.75,0,1.12238.25931,1.29.8l36.55,103.04c.32,1.08,0,1.61-1,1.61H126.12a1.49,1.49,0,0,1-1.61-1.12ZM84.91,120.14h25.43c-.64-2.14-1.39-4.56-2.25-7.24S100.6,89.11,99.8,86.25s-1.53-5.44-2.18-7.81h-.16a129.70026,129.70026,0,0,1-3.38,12.88q-2.25,7.25-4.59,14.82T84.91,120.14Z"/>
        </g>
      </g>
    </g>
  </g>
</svg>
